<?xml version="1.0" standalone="no"?>
<!DOCTYPE svg PUBLIC "-//W3C//DTD SVG 20010904//EN"
 "http://www.w3.org/TR/2001/REC-SVG-20010904/DTD/svg10.dtd">
<svg version="1.0" xmlns="http://www.w3.org/2000/svg"
 width="1024.000000pt" height="683.000000pt" viewBox="0 0 1024.000000 683.000000"
 preserveAspectRatio="xMidYMid meet">
<metadata>
Created by potrace 1.16, written by Peter Selinger 2001-2019
</metadata>
<g transform="translate(0.000000,683.000000) scale(0.100000,-0.100000)"
fill="#000000" stroke="none">
<path d="M1 4438 c1 -1316 5 -2374 8 -2351 4 24 9 45 12 47 3 3 31 9 63 14
l58 9 -6 -49 -7 -49 27 7 27 7 -6 -49 c-4 -27 -9 -79 -13 -116 -6 -62 -8 -67
-32 -70 -22 -3 -28 -10 -37 -53 -10 -50 -10 -50 -53 -53 l-42 -3 0 -59 c0 -35
5 -60 11 -62 9 -3 9 -9 0 -25 -7 -14 -11 -93 -11 -232 l0 -211 37 5 c21 2 99
9 173 15 74 6 149 15 166 21 17 5 47 6 70 1 33 -6 40 -12 42 -35 3 -26 1 -27
-41 -27 l-44 0 -10 -52 c-8 -41 -11 -46 -12 -23 -2 26 -4 27 -11 10 -9 -20 -9
-20 -9 0 -1 12 4 26 11 33 9 9 8 12 -6 12 -14 0 -17 5 -13 21 8 31 -15 18 -26
-15 -7 -21 -6 -31 4 -37 11 -7 9 -9 -7 -9 -18 0 -23 -11 -38 -82 -32 -155 -38
-178 -48 -178 -7 0 -8 19 -4 52 13 106 24 262 20 270 -3 4 -61 8 -130 8 l-124
0 0 -411 0 -412 213 7 c116 3 250 9 296 12 61 5 82 4 77 -5 -4 -6 -16 -11 -26
-11 -10 0 -20 -5 -22 -11 -3 -8 -53 -14 -138 -19 -128 -7 -123 -7 99 -8 129
-1 232 -4 230 -6 -2 -2 -120 -6 -262 -10 -180 -5 -257 -4 -252 3 7 13 -59 14
-154 5 l-61 -7 0 -128 0 -129 1923 0 c1596 0 1941 3 2037 14 63 8 158 17 210
20 l95 5 -115 -18 -115 -19 625 2 c548 2 632 4 685 19 l60 17 -48 -4 c-43 -3
-76 9 -45 18 7 2 36 11 63 20 28 9 65 16 83 16 17 0 32 5 32 11 0 7 -27 8 -82
4 -46 -3 -126 -8 -178 -10 -53 -3 -111 -10 -130 -15 -45 -13 -50 -13 -50 4 0
8 16 16 42 19 24 4 70 13 103 21 l60 15 -65 -6 c-36 -3 -119 -11 -185 -19 -65
-7 -121 -11 -123 -9 -13 12 16 23 78 29 43 5 70 12 70 19 0 8 3 8 8 2 4 -6 26
-7 52 -4 25 3 36 7 26 7 -23 2 -15 14 11 17 131 14 186 42 62 32 -240 -20
-255 -21 -238 -2 12 12 44 20 105 26 49 5 126 14 172 19 61 7 88 6 102 -2 14
-9 25 -9 45 0 14 7 43 12 63 12 20 0 53 4 72 9 19 5 72 12 117 16 75 6 81 5
79 -12 -2 -11 -15 -21 -32 -25 -16 -4 11 -6 60 -4 50 1 81 -1 70 -5 -14 -6 -9
-8 19 -8 38 -1 54 -21 17 -21 -17 0 -19 -3 -10 -19 9 -17 5 -21 -24 -32 -42
-15 -37 -32 7 -24 18 3 55 7 82 9 28 2 69 9 90 14 78 20 127 24 123 10 -3 -7
-11 -13 -19 -14 -8 0 -22 -4 -32 -9 -9 -4 -26 -5 -37 -2 -14 3 -20 0 -20 -10
0 -12 -8 -14 -33 -10 -45 7 -93 -2 -75 -15 9 -7 4 -8 -14 -4 -21 5 -28 2 -28
-8 0 -8 -5 -18 -12 -22 -7 -4 -8 -3 -4 5 8 13 -34 6 -64 -10 -28 -15 104 -1
142 15 21 9 48 16 62 16 14 0 28 4 31 10 3 5 18 10 33 9 l27 -1 -25 -8 -25 -8
27 -1 c15 -1 33 6 41 14 12 12 17 12 26 1 8 -10 6 -17 -8 -30 -11 -10 -24 -15
-29 -12 -8 5 -67 -7 -102 -21 -8 -3 -21 -5 -29 -4 -7 1 -20 -1 -30 -5 -9 -4
-18 -8 -21 -9 -3 -1 -12 -4 -20 -8 -8 -3 -33 -10 -55 -15 -28 -7 87 -10 380
-8 296 1 430 5 453 13 29 10 33 10 28 -2 -5 -13 59 -15 478 -15 l484 0 -6 65
c-3 45 -1 65 7 65 6 0 11 -12 11 -27 0 -16 3 -45 6 -66 l7 -37 75 0 75 0 -7
60 c-3 33 -9 87 -12 120 -4 37 -3 60 3 60 6 0 13 -33 17 -72 3 -40 9 -94 12
-120 l7 -48 1203 0 1204 0 0 2611 c0 2379 -2 2611 -16 2605 -32 -12 -69 -18
-56 -8 8 5 14 13 14 18 -1 5 7 14 16 19 9 6 18 19 20 30 2 17 1 18 -8 5 -9
-12 -10 -9 -6 15 6 29 6 29 -7 7 -7 -12 -17 -19 -22 -15 -4 4 -5 2 0 -6 5 -9
3 -12 -6 -9 -8 3 -14 17 -14 33 0 24 6 30 43 44 23 8 42 21 42 28 0 9 -15 7
-56 -8 -57 -21 -73 -21 -58 3 11 16 13 58 2 52 -4 -3 -10 5 -12 18 -7 36 -4
57 9 52 6 -3 25 2 41 11 16 8 36 15 45 15 9 0 19 9 22 20 5 18 2 18 -60 -5
-35 -14 -68 -27 -73 -30 -22 -14 -17 17 10 54 30 41 32 54 3 26 -25 -25 -37
-5 -12 21 13 13 25 20 28 15 3 -5 15 3 25 18 l20 26 -22 -19 c-17 -14 -22 -16
-22 -5 0 9 -8 5 -19 -10 -12 -15 -23 -21 -31 -16 -9 6 -5 12 16 24 16 8 32 15
36 16 3 0 10 4 14 8 5 4 28 16 51 27 24 10 43 24 43 29 0 15 2 15 -81 -20 -98
-41 -116 -45 -116 -25 0 9 4 17 9 17 4 1 13 3 18 4 6 1 15 3 20 4 6 0 10 5 10
11 0 6 -9 6 -25 0 -21 -8 -25 -7 -25 8 0 9 -3 26 -6 38 -6 22 -6 22 144 91 28
13 52 30 52 38 0 10 -26 2 -92 -27 -103 -45 -151 -59 -131 -38 6 7 9 19 6 27
-3 8 0 19 8 24 12 7 11 9 -2 9 -41 0 7 79 50 81 23 1 154 72 159 87 5 17 -23
15 -38 -3 -6 -8 -15 -14 -18 -13 -9 2 -40 -10 -85 -33 -22 -10 -45 -19 -53
-19 -8 0 -25 -7 -38 -15 -23 -15 -23 -15 -19 10 3 13 9 23 13 20 16 -10 38 7
45 33 3 15 18 41 33 57 15 17 20 24 12 18 -18 -16 -34 -17 -24 -1 5 7 3 8 -5
4 -7 -5 -10 -11 -7 -14 7 -7 -44 -42 -61 -42 -7 0 -13 5 -13 11 0 5 4 8 8 5 4
-2 14 -1 22 5 13 7 13 9 0 9 -8 0 14 14 50 31 36 17 72 35 80 39 8 5 30 17 48
26 17 9 32 20 32 25 0 13 -22 23 -29 13 -3 -5 -11 -10 -18 -11 -6 -1 -41 -16
-77 -32 -101 -47 -139 -62 -143 -57 -5 5 16 17 105 61 34 17 60 34 57 37 -4 3
-18 0 -33 -8 -37 -19 -39 -2 -7 41 15 19 24 35 20 35 -11 0 -34 -27 -28 -34 3
-3 -2 -8 -11 -12 -9 -3 -16 -12 -16 -20 0 -17 -26 -19 -36 -3 -3 6 -1 16 6 22
10 9 12 8 7 -5 -4 -10 -2 -18 2 -18 14 0 21 29 10 36 -13 7 -79 -23 -79 -37 0
-6 -5 -7 -10 -4 -17 10 6 32 46 45 27 9 38 9 51 -2 14 -11 15 -10 8 11 -6 19
-4 23 8 18 9 -3 18 1 21 8 3 8 11 12 19 10 7 -3 24 6 37 20 13 14 30 25 37 25
9 0 13 7 11 18 -5 22 -6 22 -133 -38 -59 -28 -113 -49 -118 -47 -6 2 3 10 20
17 22 10 28 17 20 23 -7 5 -4 6 9 3 12 -4 28 1 40 11 10 10 28 19 39 21 11 2
25 9 30 16 6 7 15 11 21 9 6 -2 14 5 17 17 7 27 -1 25 -29 -6 -13 -14 -24 -22
-24 -18 0 3 -6 1 -14 -5 -10 -9 -15 -8 -19 4 -4 8 -1 14 6 12 7 -1 11 3 10 9
-1 6 8 10 19 10 12 -1 23 5 26 13 3 9 -1 11 -17 6 -12 -4 -21 -2 -21 4 0 6 -5
11 -11 11 -5 0 -8 -4 -5 -9 9 -13 -31 -44 -46 -35 -7 4 -10 4 -6 -1 5 -5 -1
-15 -12 -22 -11 -8 -18 -19 -14 -24 3 -6 -3 -5 -14 2 -12 7 -18 17 -15 22 3 5
9 4 13 -2 5 -9 10 -8 20 4 11 13 9 15 -9 15 -12 0 -31 -5 -42 -10 -10 -6 -19
-8 -19 -5 0 2 54 32 119 65 79 39 121 55 124 47 2 -7 6 0 9 16 7 39 -9 36
-141 -28 -62 -30 -115 -55 -117 -55 -2 0 -1 7 2 15 3 8 9 13 12 12 4 -1 21 4
39 12 20 8 30 18 26 27 -3 8 0 14 7 14 6 0 8 -5 4 -11 -4 -7 -2 -9 7 -5 8 3
22 9 32 12 9 4 17 10 17 15 0 5 9 9 19 9 11 0 23 5 27 11 8 13 -16 30 -30 22
-5 -4 -7 1 -3 10 8 22 -2 22 -18 0 -7 -9 -14 -12 -17 -7 -12 19 13 54 51 73
47 24 58 39 37 47 -9 3 -40 -8 -71 -25 -30 -17 -59 -31 -64 -31 -6 0 -31 -14
-56 -31 -25 -17 -51 -28 -58 -25 -7 3 -3 7 11 11 12 4 22 11 22 16 0 5 7 9 15
9 8 0 15 7 15 16 0 14 -2 15 -17 3 -16 -13 -17 -12 -5 2 7 10 21 15 32 12 16
-4 20 0 19 18 0 22 -1 23 -9 4 -7 -17 -9 -17 -9 -3 -1 10 8 22 19 28 11 6 18
15 15 21 -9 14 -35 11 -35 -4 0 -7 -9 -13 -20 -13 -25 0 -26 9 0 21 145 72
206 115 163 115 -16 0 -152 -65 -211 -102 -18 -11 -35 -18 -38 -15 -3 3 17 18
45 33 27 16 46 31 41 34 -5 3 -1 11 10 18 16 10 18 9 13 -4 -5 -14 -3 -14 17
-2 13 7 34 23 48 36 l25 22 -50 0 c-27 0 -55 -6 -62 -12 -11 -10 -13 -10 -7 0
9 15 -10 16 -19 2 -5 -8 -11 -8 -20 0 -15 13 -848 9 -884 -4 -18 -7 -22 -6
-17 2 9 16 -316 17 -345 2 -13 -7 -19 -7 -19 0 0 7 -1343 10 -4300 10 l-4300
0 1 -2392z m8889 2373 c0 -5 -11 -32 -25 -59 -14 -28 -25 -54 -25 -58 1 -5 15
18 32 51 17 33 33 54 35 47 3 -7 -4 -30 -15 -51 -23 -44 -62 -165 -62 -190 1
-9 11 16 24 54 23 70 53 134 79 168 16 19 32 24 21 5 -5 -8 -2 -9 12 -3 10 5
39 9 64 9 37 1 45 -2 44 -16 -1 -10 5 -18 12 -18 11 0 12 -4 4 -19 -5 -11 -10
-37 -10 -58 0 -64 -18 -113 -42 -113 -19 0 -20 -4 -13 -47 4 -27 9 -65 11 -86
2 -21 7 -44 11 -50 9 -14 9 -13 27 -102 13 -62 33 -153 66 -293 7 -31 7 -49
-2 -65 -11 -21 -12 -22 -18 -2 -4 11 -10 30 -15 43 -8 24 -42 30 -51 9 -3 -8
-18 -11 -42 -9 -21 2 -55 -3 -75 -11 -36 -15 -36 -15 -67 16 -27 28 -30 29
-30 10 0 -17 -5 -20 -22 -15 -12 3 -19 1 -15 -5 4 -5 -6 -8 -24 -5 -16 2 -36
-1 -44 -8 -12 -10 -15 -9 -15 7 0 16 13 24 64 37 41 12 63 22 60 30 -3 9 -20
8 -69 -3 -51 -12 -65 -19 -65 -34 0 -10 -4 -15 -10 -12 -5 3 -10 14 -10 24 0
14 15 23 63 35 34 10 68 18 75 18 24 2 -7 118 -33 118 -9 0 -15 9 -15 23 l1
22 17 -21 c16 -19 26 -20 62 -7 8 4 21 5 28 4 6 -1 12 3 12 10 0 6 6 9 14 6 7
-3 41 2 75 10 59 15 70 25 61 58 -15 53 -32 140 -36 185 -3 30 -10 60 -16 67
-5 7 -7 17 -3 23 5 8 -4 10 -26 8 -32 -3 -34 -5 -31 -40 3 -36 2 -36 -48 -47
-69 -15 -73 -14 -67 10 9 34 -32 65 -49 37 -4 -7 -3 -8 4 -4 7 4 12 2 12 -4 0
-6 -7 -13 -17 -17 -14 -5 -13 -8 5 -14 23 -9 31 -39 10 -39 -21 0 -58 43 -58
66 0 19 9 25 48 37 l47 14 -27 11 c-16 6 -28 18 -28 26 0 29 97 236 111 236 5
0 9 -4 9 -9z m888 -895 c108 -36 112 -41 98 -107 -10 -44 -17 -54 -48 -70 -20
-10 -40 -29 -44 -41 -4 -13 -12 -27 -18 -31 -8 -6 -8 -10 2 -14 25 -10 11 -20
-20 -13 -22 4 -43 2 -61 -7 -45 -22 -42 -9 5 26 47 35 45 41 -4 11 -41 -25
-55 -26 -37 -2 12 15 12 16 -1 7 -8 -6 -34 -23 -57 -39 -24 -16 -46 -41 -52
-59 -13 -34 -20 -33 -23 6 -3 32 -2 32 -41 5 l-32 -21 30 32 c30 33 30 33 5
26 -14 -4 -34 -17 -44 -29 -11 -11 -42 -45 -70 -75 -28 -30 -44 -50 -36 -46 8
5 21 17 28 27 7 10 22 23 33 29 14 7 7 -7 -20 -41 -32 -40 -39 -55 -30 -66 6
-7 7 -19 3 -26 -5 -8 -1 -8 11 2 15 13 15 8 -5 -30 -14 -26 -17 -40 -9 -33 13
10 14 6 11 -25 -4 -34 -4 -36 13 -22 17 14 17 13 6 -8 -7 -12 -16 -20 -21 -17
-6 3 -18 1 -27 -4 -10 -6 -13 -11 -7 -11 7 0 15 -16 19 -36 5 -28 2 -39 -12
-50 -17 -13 -17 -13 4 -14 18 0 21 -6 21 -36 0 -25 -3 -33 -9 -23 -13 21 -12
-4 7 -91 8 -41 22 -109 30 -150 8 -41 22 -106 30 -145 26 -117 38 -201 31
-219 -4 -9 -15 -16 -25 -16 -32 0 -186 -171 -223 -247 -18 -37 -38 -71 -44
-75 -6 -5 -3 -8 8 -8 9 0 17 -6 17 -12 0 -7 7 -71 15 -143 13 -116 29 -525 20
-500 -2 6 -22 123 -45 260 -22 138 -47 268 -54 290 -8 22 -17 52 -20 68 -6 24
-4 27 21 28 17 1 21 3 11 6 -10 2 -18 6 -18 8 0 2 -9 48 -19 102 -29 150 -33
190 -21 198 5 3 10 12 10 18 0 8 -3 8 -9 -1 -7 -11 -9 -11 -14 2 -4 10 -1 16
9 16 10 0 14 6 11 14 -3 7 -1 18 5 24 7 7 7 20 1 39 -6 15 -8 38 -7 51 2 13 0
21 -5 18 -4 -3 -6 5 -4 17 3 17 -21 179 -39 257 -5 21 30 24 35 3 4 -14 5 -13
6 5 0 12 -3 22 -7 22 -15 0 -9 30 7 34 9 3 63 15 121 27 58 11 108 23 111 25
6 3 -12 106 -33 192 l-11 44 -84 -7 c-45 -4 -83 -4 -83 0 0 4 17 39 37 78 70
132 293 338 490 451 72 41 88 61 57 73 -15 6 -15 8 2 20 35 25 -8 13 -65 -18
-31 -18 -72 -41 -91 -51 l-35 -20 29 24 c16 12 61 42 100 65 39 24 67 43 62
43 -5 0 -3 6 3 13 6 8 7 18 3 22 -4 5 0 6 8 3 8 -3 52 -17 98 -32z m-833 -80
c30 15 118 24 130 13 7 -8 -36 -99 -46 -99 -5 0 -13 8 -18 18 -10 16 -10 16
-11 0 0 -28 -80 -56 -80 -28 0 6 -7 10 -15 10 -9 0 -18 8 -22 18 -3 9 -15 25
-27 34 -18 15 -19 18 -3 18 11 0 17 8 17 22 l0 21 23 -21 c21 -20 25 -20 52
-6z m90 -277 c2 -19 9 -50 14 -69 12 -39 10 -43 -43 -60 -35 -11 -40 -11 -61
11 -26 26 -49 149 -26 135 6 -4 11 -3 11 2 0 12 82 31 93 21 5 -4 10 -22 12
-40z m-5685 -705 c9 -25 9 -53 0 -106 -14 -90 -31 -120 -68 -116 -25 3 -27 7
-30 55 -4 77 14 192 34 214 16 18 19 18 35 3 10 -9 23 -32 29 -50z m186 23
c10 4 12 0 8 -11 -6 -17 11 -23 20 -7 7 11 48 2 58 -13 15 -22 7 -28 -31 -21
-41 7 -58 -8 -40 -36 5 -8 8 -32 8 -54 -1 -49 -32 -144 -43 -127 -3 6 -14 8
-23 5 -14 -6 -15 3 -9 83 4 49 8 98 10 109 2 11 -1 26 -7 33 -7 9 -2 12 19 12
25 1 26 2 12 11 -10 5 -18 15 -18 21 0 9 3 9 11 1 6 -6 18 -9 25 -6z m563 -26
c18 -25 21 -44 21 -124 0 -112 -4 -127 -36 -127 -48 0 -72 92 -53 197 16 88
34 102 68 54z m-284 -1 c3 -5 21 -10 40 -10 19 0 37 -4 40 -10 3 -5 1 -10 -4
-10 -7 0 -11 -37 -11 -102 0 -57 -4 -107 -8 -113 -4 -5 -16 -10 -27 -10 -28 0
-41 63 -26 127 6 27 11 61 11 75 0 24 -3 25 -34 20 -41 -6 -49 -1 -35 24 10
20 44 26 54 9z m-396 -459 c10 -7 0 -8 -30 -6 -34 3 -37 3 -14 -3 25 -6 16
-10 -55 -20 -99 -15 -273 -59 -312 -78 -15 -8 -33 -11 -41 -8 -10 3 -27 -10
-47 -35 -18 -22 -37 -38 -43 -34 -6 3 -7 1 -3 -5 4 -6 -1 -26 -10 -44 l-16
-33 35 38 c36 39 57 47 57 23 0 -8 6 -17 13 -20 6 -3 -1 -4 -17 -3 -16 1 -31
-2 -33 -8 -5 -15 49 -37 61 -25 5 5 15 10 21 10 5 0 3 -4 -5 -10 -8 -5 -11
-12 -8 -16 4 -3 28 8 54 25 26 17 52 31 58 30 11 0 9 -2 -76 -56 -28 -17 -57
-41 -65 -52 -14 -21 -33 -20 -33 0 0 6 4 8 9 5 4 -3 19 7 32 22 l24 27 -26
-23 c-23 -20 -27 -21 -39 -7 -20 24 -37 18 -44 -15 -5 -30 -6 -30 -57 -26 -28
3 -54 8 -58 12 -3 3 18 4 47 2 56 -5 59 -3 37 26 -8 11 -19 15 -27 10 -10 -6
-10 -4 -2 7 6 8 16 32 22 54 29 100 189 188 417 229 95 17 155 19 174 7z
m1306 -93 c5 -30 13 -41 45 -59 39 -22 51 -39 29 -39 -6 0 -23 9 -39 20 l-27
20 0 -26 c0 -16 2 -21 7 -14 6 9 13 8 32 -4 23 -15 24 -19 17 -87 -5 -39 -10
-74 -13 -76 -14 -14 -26 15 -32 80 -8 71 -8 72 -18 35 -14 -45 -24 -57 -36
-38 -13 21 -12 144 1 157 6 6 12 28 14 49 5 62 7 60 20 -18z m-1539 -167 c-3
-4 -26 -16 -51 -25 -52 -20 -61 -49 -20 -68 13 -6 22 -15 19 -19 -3 -5 1 -9 8
-9 8 0 14 -9 14 -20 0 -21 -15 -28 -17 -7 0 6 -7 -21 -14 -62 -15 -80 -38
-120 -51 -86 -4 10 -3 62 3 114 6 53 9 97 8 99 -2 2 -12 -1 -23 -7 -12 -6 -38
-11 -59 -11 -35 1 -37 2 -19 15 11 8 31 12 50 9 26 -5 28 -4 13 6 -18 11 -17
13 5 28 21 15 112 51 131 52 5 0 6 -4 3 -9z m335 -112 c0 -57 -2 -111 -6 -120
-8 -22 -63 -20 -71 3 -13 43 -20 157 -9 171 10 14 77 57 82 53 1 -1 3 -49 4
-107z m358 81 c4 0 14 -14 23 -32 14 -31 13 -36 -18 -113 -27 -68 -36 -80 -56
-80 -42 0 -47 11 -43 97 5 111 12 138 36 138 10 0 19 5 19 11 0 6 7 3 16 -5 8
-9 19 -16 23 -16z m3918 -56 c3 -8 18 -14 34 -14 27 0 29 -2 19 -20 -10 -19
-8 -20 35 -20 56 0 51 -13 -10 -31 -46 -14 -56 -25 -30 -35 8 -4 15 -10 15
-15 0 -5 -7 -9 -15 -9 -8 0 -15 -9 -15 -20 0 -13 -7 -20 -18 -20 -10 0 -22 -3
-26 -7 -28 -29 -120 -34 -141 -7 -5 7 -19 14 -30 16 -14 3 -19 11 -18 26 2 19
-2 22 -30 23 l-32 1 33 14 c32 14 40 28 22 39 -17 10 -11 32 10 38 11 3 20 12
20 21 0 9 8 16 18 16 10 0 22 4 28 9 22 22 122 18 131 -5z m218 -116 c15 -54
56 -364 75 -563 24 -265 30 -348 27 -351 -2 -2 -14 69 -26 159 -13 89 -43 290
-67 447 -45 291 -51 360 -34 360 5 0 16 -24 25 -52z m-5020 -238 c10 -11 31
-20 47 -20 32 0 118 -20 118 -27 0 -2 -5 -13 -11 -24 -8 -16 -17 -19 -47 -14
l-37 5 35 -11 35 -12 -29 -12 c-20 -8 -25 -14 -15 -18 11 -4 11 -6 -1 -6 -9
-1 -21 4 -28 11 -9 10 -16 8 -30 -6 -16 -17 -16 -17 12 -10 22 5 28 4 24 -7
-3 -8 -21 -17 -40 -20 -20 -3 -47 -12 -60 -21 -27 -17 -58 -29 -58 -23 0 3 23
16 50 30 28 14 50 28 50 30 0 3 -22 -6 -50 -20 -27 -14 -56 -25 -64 -25 -8 0
-21 -6 -28 -14 -11 -11 -17 -11 -31 -1 -15 11 -12 14 26 30 61 27 199 106 193
112 -2 3 -15 -2 -28 -11 -13 -8 -33 -17 -43 -19 -32 -6 -77 -29 -117 -61 -37
-28 -38 -29 -58 -11 -17 16 -18 20 -6 34 7 9 23 35 35 59 12 23 23 42 25 42 8
0 -2 -41 -21 -78 -11 -23 -19 -42 -18 -42 21 0 234 119 215 120 -17 1 -90 59
-74 60 6 0 19 -9 29 -20z m916 -205 c4 3 12 -7 15 -22 8 -30 -3 -896 -13
-1010 -6 -75 -18 -93 -29 -45 -4 15 -10 32 -14 37 -13 18 -40 122 -40 155 0
25 -3 30 -12 22 -9 -7 -17 -6 -26 4 -10 11 -10 14 0 14 9 0 9 3 -2 10 -12 8
-9 10 13 10 25 0 40 18 17 21 -5 1 -16 2 -22 3 -7 0 -14 9 -16 19 -3 13 3 17
22 17 14 0 26 6 27 13 0 6 1 33 2 60 2 55 21 49 -172 47 -85 -1 -121 2 -116 9
4 7 63 11 165 11 169 0 220 13 93 24 -123 10 -463 7 -463 -4 0 -6 39 -11 93
-12 50 0 76 -3 57 -6 -29 -4 -32 -6 -15 -12 19 -8 19 -9 -2 -9 -12 -1 -23 3
-25 8 -2 5 -21 5 -43 1 -22 -4 -34 -8 -28 -9 9 -1 10 -8 3 -26 -5 -13 -8 -38
-7 -55 2 -26 6 -30 30 -30 29 0 30 -1 21 -24 -8 -22 -51 -21 -57 2 -3 9 -4 -3
-4 -28 2 -79 -14 -174 -33 -195 -10 -11 -23 -37 -30 -57 -6 -21 -14 -38 -17
-38 -17 0 25 851 43 869 2 2 4 -3 4 -12 0 -9 7 -17 15 -17 17 0 20 -25 5 -35
-15 -9 -12 -25 4 -25 16 0 8 -53 -23 -157 -13 -43 -16 -63 -8 -60 7 2 75 25
152 52 l140 48 148 -61 c168 -69 159 -74 127 60 -10 46 -21 104 -22 131 -3 41
-5 45 -15 30 -7 -9 -13 -20 -13 -24 0 -3 -11 -4 -24 -2 -18 4 -25 13 -30 41
-9 57 -7 120 4 127 6 3 10 21 10 40 0 19 5 37 11 41 8 4 7 9 -2 15 -10 6 -5 9
16 9 l30 0 -3 -62 c-1 -35 1 -83 7 -108 l9 -45 1 65 c3 103 19 208 28 182 3
-6 9 -10 14 -7z m-858 -12 c-24 -9 -13 -20 16 -15 16 2 32 -1 35 -7 5 -7 -2
-11 -18 -11 -14 0 -28 -4 -31 -10 -3 -5 3 -10 14 -10 20 0 21 -6 21 -109 0
-102 -1 -110 -26 -136 -14 -15 -28 -24 -31 -21 -4 3 -2 59 4 124 6 64 10 118
8 120 -2 2 -12 -1 -23 -7 -26 -14 -109 -14 -117 -1 -4 6 9 17 27 24 18 8 34
10 36 5 6 -15 23 -10 20 6 -3 14 46 54 67 53 6 0 4 -2 -2 -5z m411 -49 c9 -71
7 -182 -4 -189 -5 -3 -10 -14 -10 -25 0 -13 -7 -17 -24 -16 -33 1 -39 37 -26
157 5 52 10 100 10 107 0 6 11 12 24 12 20 0 24 -6 30 -46z m695 -104 c-1 -25
-1 -58 1 -75 2 -28 3 -28 11 10 4 22 8 56 8 75 1 30 5 35 26 36 l25 2 0 -125
c0 -95 -3 -124 -12 -121 -7 3 -15 16 -18 29 -3 13 -11 24 -17 23 -7 -1 -17 -2
-22 -3 -5 0 -10 -25 -10 -53 0 -29 -12 -95 -25 -146 l-24 -94 76 8 c43 3 88
11 101 16 43 16 34 0 -14 -25 l-47 -24 128 -48 c71 -27 133 -52 138 -56 7 -7
-190 55 -248 77 -13 5 -17 3 -14 -6 2 -7 43 -27 90 -44 96 -35 106 -41 83 -50
-10 -4 -14 -2 -9 6 5 7 -1 9 -17 5 -27 -6 -115 26 -112 41 1 5 -8 10 -22 10
-19 0 -22 -5 -19 -25 3 -13 1 -31 -4 -40 -10 -17 24 -67 39 -57 4 2 24 -2 44
-10 36 -16 48 -29 18 -21 -10 3 -4 -2 12 -10 l30 -16 -35 5 c-19 2 -52 9 -73
14 -39 11 -59 0 -30 -16 14 -9 15 -13 4 -26 -7 -9 -17 -13 -22 -10 -5 3 -9
-25 -9 -63 0 -37 -3 -79 -7 -92 -6 -23 -6 -23 -18 5 l-12 29 -7 -39 c-4 -22
-14 -49 -22 -60 -8 -11 -15 -30 -15 -41 -1 -17 -2 -17 -6 -2 -6 22 -43 23 -43
1 0 -13 -6 -15 -27 -10 -62 15 -81 27 -87 58 -16 79 -1 678 22 887 7 60 9 65
35 72 25 7 34 3 63 -26 19 -19 34 -42 35 -52 0 -14 2 -15 6 -3 3 8 12 19 20
23 11 7 14 26 13 70 -3 79 -1 88 11 57 6 -14 9 -45 8 -70z m-883 -15 c-17 -13
-17 -15 -3 -21 13 -5 16 -17 12 -62 -3 -32 -7 -147 -10 -257 -5 -208 -20 -509
-30 -582 -5 -35 -11 -43 -37 -52 -69 -24 -108 -1 -108 64 -1 32 -3 36 -11 23
-18 -32 -24 -19 -21 43 2 33 0 77 -4 97 l-7 37 -12 -60 -12 -60 -2 63 c0 35
-5 61 -10 58 -5 -3 -14 1 -21 9 -11 13 -10 18 6 31 18 14 17 15 -13 10 -18 -3
-46 -9 -63 -12 -16 -3 -47 -3 -67 1 l-38 8 81 26 c45 15 87 33 95 41 15 16 20
80 6 80 -4 0 -6 4 -3 8 2 4 -4 9 -15 9 -16 2 -17 -2 -9 -17 8 -15 6 -20 -10
-25 -11 -3 -25 -3 -31 1 -7 4 -9 3 -6 -3 9 -15 -49 -34 -79 -27 -18 5 -24 2
-24 -10 0 -9 -4 -16 -10 -16 -5 0 -10 4 -10 9 0 5 -10 12 -22 16 -14 4 -18 8
-11 11 8 4 2 14 -17 31 -17 13 -30 28 -30 31 0 4 31 44 68 88 l68 81 48 -24
c36 -18 176 -53 215 -53 2 0 0 19 -4 43 -20 120 -21 145 -9 140 7 -3 15 -12
17 -21 2 -10 7 24 11 73 14 175 13 173 55 178 20 2 50 4 66 5 28 1 29 0 11
-13z m6417 -185 c14 -74 40 -218 57 -320 17 -102 35 -206 40 -231 9 -45 4 -89
-9 -89 -9 0 -31 129 -31 180 0 21 -4 41 -8 44 -5 3 -14 45 -21 93 -7 48 -15
99 -17 113 -33 167 -54 298 -54 337 0 57 18 3 43 -127z m-6966 77 c7 -5 11
-13 7 -18 -3 -6 4 -13 16 -16 22 -6 22 -7 5 -19 -15 -11 -16 -16 -5 -29 10
-12 10 -15 -4 -15 -9 0 -16 -6 -16 -13 0 -7 -8 -17 -19 -24 -14 -9 -20 -28
-24 -80 -9 -93 -17 -354 -11 -325 5 18 10 21 32 16 35 -9 35 -9 35 -39 0 -14
3 -25 7 -25 8 0 4 -207 -6 -260 -3 -19 -12 -47 -20 -62 -12 -24 -20 -27 -54
-25 l-40 2 0 66 c0 36 11 211 25 389 14 177 23 325 21 328 -9 8 -36 -19 -37
-37 0 -10 -3 -8 -10 7 -5 13 -14 20 -20 17 -6 -4 -13 2 -16 14 -3 12 -13 21
-24 21 -22 0 -24 11 -7 28 9 9 7 12 -12 12 l-25 0 23 18 c18 14 20 20 10 30
-9 9 -8 12 6 12 13 0 17 5 13 19 -3 15 0 17 16 13 13 -3 18 -1 13 6 -9 14 26
24 58 16 18 -4 26 -2 26 7 0 8 5 6 12 -6 6 -11 17 -24 25 -28z m-232 -123 c8
-20 13 -39 11 -43 -9 -13 -35 -245 -61 -526 -14 -154 -29 -309 -35 -345 -5
-36 -12 -96 -16 -135 -22 -238 -12 150 17 645 19 330 23 373 40 418 12 32 27
27 44 -14z m2222 -117 c11 -22 33 -196 33 -254 0 -31 1 -32 38 -27 20 3 50 10
66 15 39 12 41 7 5 -16 -16 -11 -29 -23 -29 -27 0 -3 17 -12 38 -18 20 -7 42
-17 47 -23 7 -7 5 -8 -7 -4 -9 3 -34 8 -55 12 l-38 5 50 -23 c39 -18 46 -25
32 -30 -10 -4 -27 -2 -37 3 -26 14 -43 12 -37 -4 3 -8 -3 -23 -14 -35 -20 -21
-20 -21 1 -21 11 0 19 -5 18 -12 -2 -6 6 -14 17 -17 27 -8 30 -31 5 -32 -33
-2 -38 -4 -46 -11 -4 -5 0 -8 9 -8 20 0 22 -13 4 -29 -15 -12 -14 -61 2 -156
8 -45 8 -61 -2 -67 -9 -5 -14 5 -17 37 -7 53 -20 71 -20 27 0 -17 -5 -34 -11
-38 -6 -3 -9 -15 -6 -25 7 -24 -24 -26 -63 -3 -24 15 -28 25 -34 77 -11 108
-7 684 5 711 13 28 31 25 46 -7z m-2092 -314 c-5 -201 -10 -290 -21 -321 -8
-23 -14 -56 -14 -72 0 -23 -7 -33 -30 -45 -16 -8 -33 -15 -38 -15 -16 0 -32
86 -27 147 3 32 7 101 10 153 5 96 16 167 29 188 3 6 11 36 17 66 5 31 16 68
24 83 8 16 15 36 15 46 0 9 7 17 15 17 8 0 15 7 15 15 0 8 2 15 5 15 3 0 3
-125 0 -277z m-539 35 c-3 -40 -8 -127 -11 -193 -7 -147 -24 -350 -31 -388 -4
-17 -17 -33 -34 -42 -39 -20 -40 -20 -33 23 6 34 5 36 -10 23 -15 -12 -17 -10
-17 13 0 16 -4 25 -10 21 -13 -8 -13 18 0 31 16 16 29 114 16 115 -6 0 -6 3 2
6 17 7 15 23 -3 23 -8 0 -15 7 -15 15 0 8 8 15 18 15 14 0 15 2 2 10 -12 7 -8
10 15 10 29 1 29 2 6 11 -18 7 -22 14 -17 34 7 29 -5 32 -65 14 -40 -13 -47
-22 -59 -82 -6 -29 -4 -39 9 -47 14 -8 14 -9 0 -10 -11 0 -16 -12 -17 -47 -3
-63 -23 -237 -28 -242 -2 -2 -5 16 -6 40 l-1 44 -7 -45 c-7 -44 -7 -44 -10
-10 -1 22 -4 27 -7 15 -2 -11 -9 -30 -15 -42 -13 -26 -6 -39 14 -27 17 11 38
14 38 5 0 -3 -8 -11 -18 -16 -71 -38 -73 -39 -93 -27 -10 7 -20 12 -22 12 -1
0 -4 -24 -6 -52 -2 -29 -4 -63 -5 -74 -1 -22 -45 -35 -223 -69 l-33 -7 0 44
c0 49 24 92 38 70 7 -11 20 -10 70 4 69 19 73 28 10 26 -49 -2 -43 8 15 24 94
27 112 37 109 63 -3 18 0 22 12 18 12 -5 16 0 16 22 0 29 -15 41 -51 41 -22 0
-25 -20 -6 -39 10 -11 6 -12 -21 -6 -25 5 -33 4 -31 -7 3 -27 -1 -38 -17 -38
-9 0 -27 -11 -40 -25 -32 -34 -41 -31 -36 13 3 30 2 35 -9 25 -21 -21 -32 -15
-25 12 5 18 2 27 -9 31 -11 5 -12 11 -4 25 8 16 6 19 -11 19 -27 0 -26 16 3
24 21 6 21 7 5 20 -22 17 -23 26 -2 26 10 0 14 6 10 15 -3 10 1 15 14 15 22 0
36 16 19 22 -8 3 -6 13 7 33 10 16 26 51 35 79 15 46 19 51 43 48 14 -1 36 2
48 8 21 10 21 9 -2 -9 -20 -17 -22 -21 -7 -21 9 0 17 -4 17 -10 0 -5 -11 -10
-24 -10 -26 0 -36 -21 -36 -78 0 -28 2 -31 13 -20 8 7 16 20 20 28 4 12 6 12
6 -2 1 -9 7 -19 14 -22 10 -5 10 -7 0 -12 -7 -3 -13 -12 -13 -20 0 -10 6 -11
24 -4 34 12 40 1 14 -27 l-21 -23 35 0 c42 0 62 20 56 55 -3 14 -1 25 4 25 4
0 1 11 -8 25 -11 17 -12 25 -5 25 7 0 9 5 6 10 -4 6 6 10 22 11 28 0 28 0 4
10 -16 6 -22 15 -18 28 6 25 -15 34 -49 20 -15 -5 -29 -7 -32 -4 -3 3 9 10 27
16 24 9 29 14 19 20 -10 8 -10 11 5 20 9 6 14 15 11 21 -5 8 5 9 34 5 l41 -7
6 57 c8 74 11 83 29 83 9 0 16 -11 18 -27 l3 -28 23 38 c13 20 27 37 32 37 13
0 -1 -42 -26 -79 -13 -19 -22 -36 -20 -38 5 -5 102 29 125 44 2 1 -1 9 -8 16
-9 12 -4 13 31 7 49 -9 58 -2 58 49 0 47 22 151 32 151 4 0 8 9 8 20 0 11 5
20 11 20 8 0 9 -23 5 -72z m53 -233 c0 -71 -5 -134 -10 -140 -5 -5 -9 -21 -9
-36 0 -15 -5 -31 -10 -34 -6 -4 -8 -10 -5 -15 7 -11 -17 -110 -27 -110 -4 0
-6 19 -3 43 2 23 7 85 10 137 3 52 13 165 22 250 17 150 18 153 25 95 4 -33 8
-118 7 -190z m-1415 38 c20 -6 20 -24 -11 -265 -18 -142 -11 -133 -96 -122
-67 9 -71 24 -53 169 25 195 28 215 38 215 6 0 7 -11 4 -25 -4 -14 -2 -25 4
-25 5 0 10 7 10 16 0 11 6 14 23 9 21 -7 21 -6 3 7 -28 21 -11 41 27 33 18 -4
40 -9 51 -12z m5012 -30 c4 -16 6 -32 5 -36 -1 -5 3 -6 9 -2 6 3 8 11 5 16 -4
5 0 9 7 9 7 0 14 -11 14 -25 2 -21 -2 -25 -17 -20 -15 5 -19 1 -19 -20 0 -26
2 -27 35 -21 21 4 35 3 35 -3 0 -6 18 -16 40 -22 51 -15 45 -24 -6 -10 -53 15
-54 6 -2 -18 l43 -21 -42 6 c-41 5 -43 5 -43 -20 0 -29 -9 -33 -29 -13 -11 10
-13 9 -9 -3 3 -8 14 -16 26 -18 12 -2 22 -7 22 -12 0 -5 10 -10 23 -12 22 -4
21 -4 -5 -17 l-26 -13 3 -117 c1 -64 1 -111 -2 -104 -2 7 -11 9 -19 6 -7 -3
-11 -9 -8 -14 9 -15 -39 -10 -60 6 -18 13 -19 34 -24 261 -4 203 -2 248 9 255
22 14 26 11 35 -18z m234 -95 c16 -24 20 -27 15 -10 -4 12 -2 22 3 22 11 0 22
-34 22 -67 0 -16 6 -23 19 -23 11 0 23 5 26 10 3 6 12 10 18 10 7 -1 1 -10
-12 -21 -13 -11 -22 -21 -20 -22 2 -2 15 -9 29 -15 l25 -12 -30 4 c-26 4 -27
3 -12 -9 23 -17 21 -25 -5 -25 -12 0 -18 -3 -15 -7 4 -3 1 -13 -6 -21 -9 -12
-9 -16 1 -19 6 -3 10 -9 6 -14 -3 -5 3 -9 13 -9 16 -1 15 -3 -6 -20 -13 -11
-19 -20 -14 -20 5 0 8 -23 6 -52 -3 -29 0 -79 5 -110 5 -32 7 -58 5 -58 -2 0
-17 7 -32 14 -25 13 -29 22 -35 77 -3 34 -6 113 -6 175 l0 113 -35 7 c-19 3
-35 10 -35 15 0 11 -2 11 38 0 37 -11 43 0 10 18 -22 11 -22 11 4 6 l27 -5
-19 46 c-11 25 -20 48 -20 50 0 11 10 1 30 -28z m680 -68 c20 -71 40 -453 26
-497 -8 -25 -22 -30 -29 -10 -2 6 -3 0 -1 -15 4 -31 -3 -34 -31 -14 -22 16
-33 87 -34 228 -1 81 -4 99 -18 107 -17 10 -17 10 0 11 15 0 16 3 6 21 -8 15
-8 19 0 15 7 -5 11 2 11 19 0 14 4 33 9 43 19 38 31 91 32 143 1 52 1 53 10
19 5 -19 14 -51 19 -70z m-973 -195 c0 -55 -2 -84 -4 -65 -6 61 -13 80 -29 80
-8 0 -12 -4 -9 -10 3 -5 0 -10 -8 -10 -15 0 -27 -48 -27 -113 0 -23 -4 -36
-10 -32 -6 4 -10 30 -9 59 2 59 -6 80 -27 72 -8 -3 -13 0 -11 7 1 7 -4 11 -12
9 -8 -2 -11 3 -8 13 4 10 0 15 -11 16 -15 1 -15 2 1 6 14 4 16 8 6 19 -9 11
-9 14 0 14 7 0 10 3 7 8 -2 4 14 16 36 27 38 18 41 18 53 2 7 -9 18 -17 24
-17 7 0 10 -4 6 -9 -3 -5 -1 -12 5 -16 6 -4 11 32 12 102 l1 108 8 -85 c4 -47
7 -130 6 -185z m2925 158 c24 -22 23 -29 -8 -58 -20 -18 -38 -25 -68 -25 -43
0 -106 32 -87 44 5 4 8 12 5 19 -2 7 8 20 23 29 34 21 107 16 135 -9z m-280
-148 l14 -70 61 3 c62 3 93 -11 93 -44 0 -8 8 -14 18 -14 30 0 54 -34 46 -64
-7 -29 -37 -35 -67 -12 -10 8 -26 12 -37 9 -16 -4 -19 2 -22 43 -2 41 -6 48
-21 46 -10 -2 -25 2 -33 9 -23 19 -37 -3 -36 -58 1 -26 4 -100 7 -163 8 -149
-7 -127 -31 45 -10 72 -23 133 -28 137 -11 7 -11 193 0 210 11 18 22 -6 36
-77z m-4692 -420 c0 -30 -3 -55 -7 -55 -5 0 -9 -25 -10 -56 -2 -76 -6 -84 -48
-84 l-35 0 0 125 0 125 50 0 50 0 0 -55z m-448 -72 c18 -9 40 -19 48 -23 11
-5 16 -28 18 -86 2 -65 0 -81 -14 -91 -10 -7 -12 -13 -6 -13 8 0 12 -17 12
-45 0 -38 -3 -45 -19 -45 -11 0 -22 8 -24 18 -3 9 -5 -4 -6 -30 l-1 -48 -55 0
c-52 0 -55 -1 -55 -25 0 -20 -5 -25 -25 -25 -23 0 -25 4 -25 45 0 42 11 58 25
35 3 -5 12 -10 18 -10 7 1 -1 11 -17 24 -22 18 -27 29 -21 46 4 12 7 69 7 126
-1 81 3 107 14 117 9 6 23 20 32 30 21 21 51 22 94 0z m865 -2 c10 -10 28 -24
41 -30 16 -9 22 -21 22 -46 0 -21 -5 -35 -12 -36 -10 0 -10 -2 0 -6 7 -3 12
-23 12 -49 0 -35 -4 -44 -17 -45 -17 -1 -17 -2 0 -6 19 -5 20 -14 11 -62 -5
-22 -12 -31 -28 -32 -20 -2 -20 -2 2 -6 19 -4 22 -11 22 -49 0 -41 -2 -44 -27
-45 l-28 -2 28 -4 c25 -4 27 -8 27 -47 0 -43 0 -44 -42 -52 l-43 -8 43 -4 44
-3 -7 -37 c-4 -20 -9 -39 -12 -42 -8 -8 -181 -6 -189 3 -5 4 -2 12 6 17 10 7
11 10 3 10 -14 0 -18 49 -5 51 4 0 28 1 55 2 66 1 59 17 -8 17 l-55 0 0 45 c0
42 2 45 28 46 l27 2 -27 4 c-26 4 -28 8 -28 49 0 39 3 44 23 45 l22 0 -22 9
c-19 8 -23 17 -23 55 0 29 4 45 13 46 10 0 10 2 0 6 -8 3 -13 23 -13 49 0 28
5 44 13 45 10 0 10 2 0 6 -14 5 -17 51 -5 70 4 6 21 15 37 19 17 4 39 13 50
20 26 19 41 18 62 -5z m-1501 -57 c34 -16 34 -17 33 -83 -1 -146 -15 -282 -30
-292 -10 -6 -10 -9 -1 -9 7 0 12 -15 12 -40 0 -33 -4 -42 -22 -50 l-23 -9 23
0 c24 -1 25 -4 16 -50 -4 -19 -13 -31 -23 -32 -13 -1 -13 -2 2 -6 13 -3 17
-15 17 -47 l0 -42 -50 -3 c-46 -2 -50 0 -51 21 -1 13 0 28 1 33 1 6 2 36 1 68
-1 52 1 57 21 58 23 2 23 2 -1 6 -21 4 -23 9 -18 49 3 32 1 42 -7 36 -6 -5
-30 -10 -53 -11 -38 -2 -43 0 -43 18 0 12 5 21 11 21 6 0 9 -7 5 -15 -4 -11 2
-15 24 -15 17 0 30 5 30 11 0 5 4 7 10 4 6 -3 7 1 4 9 -3 9 -1 16 5 16 6 0 11
7 11 16 0 13 -8 15 -50 9 -42 -6 -50 -4 -50 9 0 13 11 16 53 16 l54 0 2 48 c1
26 3 79 5 117 5 143 5 143 24 148 9 3 19 5 20 6 2 0 19 -6 38 -15z m-1869 -39
c-11 -36 -6 -52 12 -40 6 3 11 22 11 41 0 34 1 34 37 30 21 -2 39 -9 41 -15 3
-8 8 -9 17 -1 13 11 45 4 45 -11 0 -14 -18 -11 -23 4 -2 6 -8 9 -12 4 -5 -4 0
-13 10 -21 16 -12 21 -11 36 8 17 21 17 20 12 -21 -6 -49 13 -61 23 -15 10 45
11 48 19 29 11 -26 -11 -67 -35 -67 -11 0 -23 7 -26 15 -6 14 -8 14 -18 1 -15
-20 -106 -10 -106 12 0 12 3 12 15 2 18 -15 20 1 3 18 -18 18 -26 15 -30 -10
-4 -27 -32 -35 -54 -17 -11 9 -14 24 -11 49 3 19 3 29 0 22 -5 -13 -23 -7 -23
9 0 5 15 9 34 9 l34 0 -11 -35z m4077 3 c10 -19 16 -57 16 -100 0 -63 -1 -68
-22 -69 l-23 -2 23 -4 c18 -4 22 -11 22 -44 0 -34 -3 -39 -22 -39 -21 -1 -22
-1 -5 -11 11 -6 31 -9 46 -6 31 7 60 -6 41 -18 -6 -4 -22 -4 -36 -1 -20 5 -24
3 -24 -14 0 -13 4 -19 11 -14 7 4 10 1 7 -7 -3 -8 -14 -15 -26 -17 -26 -4 -27
-8 -7 -28 8 -9 15 -26 15 -40 0 -23 -9 -28 -37 -25 -7 1 -13 -3 -13 -9 0 -5
11 -10 25 -10 23 0 25 -4 25 -40 l0 -40 -70 0 -69 0 0 90 c0 77 2 90 17 91 15
1 15 2 0 6 -22 5 -26 82 -5 84 10 0 10 2 0 6 -8 3 -13 23 -13 49 0 28 5 44 13
45 10 0 10 2 0 6 -9 3 -13 30 -13 83 l0 79 35 7 c19 3 35 10 35 15 0 23 40 6
54 -23z m-2496 -14 c23 -16 31 -67 12 -79 -5 -3 -7 -11 -4 -19 3 -7 0 -25 -5
-39 -6 -15 -13 -86 -17 -159 -4 -73 -8 -135 -11 -137 -9 -11 -123 -13 -123 -2
0 6 9 11 21 11 47 0 67 57 22 62 -24 2 -28 8 -28 33 -1 29 -3 30 -50 35 -42 4
-46 6 -25 12 14 4 48 8 75 8 28 0 55 4 62 8 17 11 22 184 6 177 -12 -4 -19 18
-13 40 2 6 4 21 6 35 1 14 3 26 3 28 3 8 50 -1 69 -14z m-957 -24 c4 -3 10
-22 14 -42 6 -31 4 -38 -17 -51 -19 -13 -33 -14 -76 -5 l-53 11 6 41 c5 30 3
37 -4 26 -6 -8 -11 -26 -12 -40 -1 -17 -4 -12 -9 15 -5 22 -5 43 -2 47 4 3 27
3 52 -2 27 -5 46 -5 48 1 2 5 10 9 18 9 8 0 14 6 15 13 0 7 3 6 6 -3 3 -8 9
-17 14 -20z m709 2 c-10 -4 -9 -6 1 -13 14 -8 15 -64 3 -174 -4 -33 -7 -68 -6
-77 1 -21 -7 -22 -135 -18 -101 2 -163 -12 -164 -38 -2 -52 -12 -107 -20 -110
-15 -6 -10 -22 6 -22 11 0 15 -10 14 -32 -2 -31 -2 -31 -6 -5 -5 33 -18 36
-21 5 -2 -13 -4 -32 -6 -43 -2 -11 -4 -27 -5 -35 -1 -11 -7 -8 -21 10 -17 23
-18 26 -2 32 16 6 15 7 -1 7 -15 1 -17 8 -12 54 9 74 12 80 36 74 13 -3 19 -1
16 6 -2 7 -13 13 -25 15 -21 3 -26 12 -23 41 2 10 -13 12 -66 10 l-68 -4 3 55
c2 30 5 70 7 88 2 17 0 32 -5 32 -9 0 -20 -50 -20 -94 0 -62 -10 -77 -44 -74
l-31 3 2 100 c2 111 10 165 22 165 5 0 12 -8 15 -17 6 -15 9 -15 16 -3 5 8 6
18 4 22 -3 4 1 8 10 8 15 0 16 -16 3 -36 -8 -13 19 -27 34 -18 5 3 10 22 10
42 2 33 2 34 6 7 2 -16 8 -50 14 -73 6 -28 6 -48 0 -56 -12 -14 -19 -120 -8
-123 4 -2 29 -3 56 -3 l49 0 6 73 c4 39 7 97 9 127 2 61 19 74 61 46 25 -16
26 -19 7 -173 -7 -56 -6 -63 9 -63 14 0 19 16 27 83 l10 82 2 -63 1 -63 69 3
69 3 8 100 c5 55 9 105 10 110 1 6 2 15 3 20 0 6 13 12 28 13 15 1 32 7 37 12
8 8 12 7 15 -2 2 -6 -2 -14 -9 -16z m3112 -118 l-4 -142 111 -7 c61 -4 111
-11 111 -17 0 -6 -40 -7 -105 -2 l-105 7 0 -37 c0 -35 1 -36 43 -38 l42 -1
-42 -4 c-40 -4 -43 -6 -43 -34 0 -16 -6 -29 -12 -30 -10 0 -10 -2 0 -6 6 -2
12 -20 12 -39 0 -25 -4 -34 -17 -35 -17 -1 -17 -2 0 -6 14 -4 17 -17 17 -84
l0 -79 -40 0 c-39 0 -40 1 -40 35 0 33 2 35 38 37 l37 1 -36 4 -37 4 0 127 c0
70 -4 198 -8 285 -7 183 -2 206 50 204 l31 -2 -3 -141z m314 37 c1 -89 -4
-111 -25 -104 -10 3 -8 -3 8 -16 17 -16 22 -29 19 -51 -3 -17 -1 -30 4 -30 4
0 9 17 9 38 1 36 2 36 8 7 7 -28 7 -83 1 -130 -2 -11 -6 0 -10 25 -7 43 -7 42
-10 -25 -3 -79 -1 -98 9 -105 11 -8 11 -51 0 -72 -5 -10 -6 -18 -1 -18 5 0 10
-10 11 -22 0 -13 2 -50 4 -83 2 -33 5 -81 5 -107 l2 -48 38 1 c23 1 28 3 15 6
-22 4 -23 9 -21 93 l1 88 27 -4 c21 -4 29 1 38 20 8 18 16 23 31 19 23 -6 27
-23 10 -40 -9 -9 -8 -16 5 -28 9 -9 16 -31 16 -48 0 -24 3 -28 10 -17 11 18
11 19 16 -44 5 -57 9 -65 26 -48 7 7 28 12 47 12 l36 -1 -33 -14 c-18 -8 -48
-17 -67 -21 -25 -4 -35 -12 -35 -25 0 -24 -38 -59 -64 -60 -21 0 -21 -1 -1 -8
19 -8 18 -9 -5 -13 -14 -3 23 -6 82 -7 66 0 109 3 113 10 5 6 27 8 63 3 67 -8
69 -9 52 -29 -10 -12 -10 -19 -2 -27 12 -12 60 6 74 28 5 8 46 10 129 6 86 -3
120 -2 115 6 -9 15 14 26 27 13 13 -13 30 -15 22 -2 -8 13 67 23 148 19 71 -3
91 -19 35 -28 -32 -5 -32 -6 -11 -18 12 -6 28 -10 35 -8 7 2 77 7 156 10 119
5 142 4 142 -8 0 -9 -15 -17 -37 -20 -56 -9 -325 -26 -333 -21 -13 8 -244 9
-276 1 -57 -13 -408 -33 -431 -25 -14 5 -23 5 -23 -1 0 -6 -8 -10 -18 -10 -10
0 -22 -4 -28 -10 -11 -11 -54 -2 -54 13 0 6 -26 8 -72 3 -40 -3 -129 -6 -198
-7 -82 -1 -128 -5 -133 -12 -6 -9 -10 -9 -14 1 -2 6 -9 10 -14 6 -5 -3 -9 0
-9 5 0 6 -10 10 -22 10 -17 -1 -19 -2 -5 -6 9 -2 17 -8 17 -13 0 -17 -80 -25
-445 -45 -154 -8 -388 -22 -520 -30 -132 -8 -340 -20 -462 -25 -416 -19 -668
-29 -828 -35 -88 -4 -170 -8 -182 -11 -19 -4 -22 0 -20 18 2 23 0 23 -93 20
-52 -1 -266 -7 -475 -12 -424 -11 -964 -28 -1098 -34 -95 -5 -160 2 -151 15 3
5 14 9 25 9 11 0 18 4 15 9 -11 17 43 21 399 31 193 5 409 12 480 15 72 3 312
10 535 16 223 5 421 12 440 14 19 3 61 6 92 7 33 1 54 6 51 12 -4 6 52 7 153
3 87 -4 165 -3 173 2 7 5 27 5 42 1 16 -5 29 -5 29 -1 0 5 62 11 138 15 75 4
164 8 197 11 44 3 53 2 35 -5 -16 -6 49 -7 175 -3 110 4 208 6 218 5 9 0 17 7
18 16 0 11 3 12 6 5 3 -8 25 -13 58 -13 29 0 55 -4 57 -8 4 -11 248 -2 248 8
0 12 -87 18 -222 15 -71 -1 -128 0 -128 2 0 23 25 43 53 42 l32 -1 -30 -8
c-29 -7 -29 -8 -5 -10 59 -7 80 -5 84 7 6 15 36 18 36 3 0 -6 10 -6 27 1 14 5
32 8 39 5 8 -3 103 -1 211 4 109 5 286 11 393 14 267 8 442 17 460 22 13 5 13
6 0 15 -11 7 -2 9 29 5 24 -3 49 -11 56 -16 10 -8 15 -8 20 0 4 7 15 10 26 7
13 -4 19 2 24 23 3 15 5 33 3 40 -2 8 6 16 17 18 26 5 41 19 18 17 -47 -6 -83
-19 -83 -29 -1 -6 -6 0 -13 14 -14 29 -2 27 -242 35 -93 4 -174 11 -179 16 -6
6 -4 9 6 9 9 0 18 9 21 20 8 29 77 29 77 0 0 -18 7 -20 68 -22 37 -1 86 -3
110 -4 l42 -2 2 112 2 111 3 -107 c2 -61 8 -108 13 -108 6 0 10 9 10 20 0 13
10 22 33 29 l32 9 -32 1 c-31 1 -33 3 -33 36 0 32 2 35 33 37 l32 1 -32 4
c-18 2 -33 10 -33 16 0 7 -3 22 -6 35 -6 20 -3 22 32 24 l39 1 -37 4 c-36 4
-38 6 -38 39 0 30 3 34 28 35 l27 2 -27 4 -28 4 -1 107 c-1 135 -3 152 -18
162 -21 12 -9 55 14 53 11 -1 14 0 8 3 -9 4 -13 30 -13 79 0 79 11 98 55 92
18 -2 20 -10 21 -66z m394 45 c14 0 24 -6 23 -13 -2 -7 1 -13 5 -13 14 0 35
-76 30 -104 -3 -14 -2 -27 2 -28 13 -5 22 -48 10 -48 -6 0 -9 4 -6 9 3 4 -3
16 -14 26 -11 10 -20 13 -20 7 0 -6 5 -14 10 -17 22 -14 -1 -65 -29 -65 -15 0
-14 17 2 23 7 3 5 6 -5 6 -22 1 -23 8 -3 27 8 9 15 24 15 34 0 10 5 22 10 25
12 8 13 35 1 35 -5 0 -8 -6 -7 -12 0 -7 -3 -14 -9 -15 -5 -2 -11 3 -11 10 -1
6 -2 18 -3 25 -2 22 -21 13 -32 -15 -7 -19 -7 -29 0 -31 14 -5 14 -32 1 -32
-6 0 -6 -9 -2 -22 11 -31 4 -58 -14 -51 -7 3 -11 9 -8 14 3 5 -2 9 -11 9 -9 0
-13 -4 -10 -10 3 -5 -1 -10 -9 -10 -9 0 -16 -7 -16 -15 0 -10 11 -15 35 -15
19 0 35 -4 35 -10 0 -5 -6 -10 -12 -10 -7 0 -5 -5 5 -11 9 -5 17 -21 17 -34 0
-14 5 -25 10 -25 6 0 10 11 10 24 0 31 30 44 31 13 1 -17 2 -18 6 -4 2 9 13
17 24 17 21 0 21 1 23 -157 1 -76 -1 -88 -16 -91 -15 -3 -18 5 -19 45 -1 45
-1 46 -9 15 -4 -18 -10 -35 -13 -39 -6 -5 -29 69 -26 84 3 18 -2 33 -11 33 -5
0 -10 -24 -10 -54 0 -34 -5 -58 -14 -65 -12 -10 -13 -8 -9 8 3 12 1 21 -6 21
-6 0 -11 7 -11 15 0 8 -6 14 -12 13 -8 -2 -14 10 -16 30 -2 17 -7 32 -13 32
-5 0 -9 7 -9 15 0 8 -7 15 -15 15 -8 0 -15 4 -15 10 0 5 -7 7 -15 4 -11 -5
-15 1 -16 22 0 16 -2 37 -4 47 -2 11 -5 75 -6 144 -3 113 -1 127 16 139 25 18
55 18 55 0 0 -29 19 -26 35 4 12 23 21 30 33 25 9 -4 28 -8 42 -9z m-4798 -23
c2 -16 0 -46 -4 -68 -4 -22 -7 -60 -7 -85 l-1 -45 20 25 c19 25 20 25 20 3 0
-12 4 -24 9 -27 15 -10 6 -39 -15 -47 -10 -4 -13 -8 -6 -8 6 -1 12 -13 12 -27
0 -17 -4 -23 -12 -18 -7 5 -10 2 -6 -7 4 -14 -26 -52 -35 -43 -2 3 -7 -15 -10
-38 -4 -29 -2 -46 6 -53 7 -5 14 -29 14 -51 2 -33 -1 -41 -15 -40 -13 1 -21
-14 -32 -61 -8 -34 -21 -68 -29 -75 -11 -11 -12 6 -7 102 3 63 2 106 -2 95 -4
-11 -13 -21 -21 -23 -23 -5 -7 127 29 238 25 79 60 237 60 271 0 23 29 6 32
-18z m5000 -138 c-3 -114 -3 -115 20 -116 21 0 22 -1 3 -8 -16 -6 -20 -18 -22
-60 -2 -59 -5 -66 -28 -58 -18 8 -20 57 -2 57 8 0 9 2 1 8 -7 4 -15 45 -19 92
-4 47 -10 104 -15 127 -8 45 -5 54 24 70 37 20 41 8 38 -112z m224 79 c-3 -8
-6 -85 -7 -170 -1 -96 -5 -154 -11 -154 -7 0 -7 -5 0 -13 14 -16 4 -57 -13
-57 -9 0 -14 39 -19 138 -4 75 -9 163 -12 194 -4 47 -2 58 13 67 28 16 56 14
49 -5z m209 -14 c3 -5 3 -10 -2 -10 -4 0 -7 -43 -5 -95 l3 -95 62 -2 62 -2
-62 -3 c-59 -4 -63 -5 -63 -28 0 -17 6 -25 18 -26 16 -1 16 -2 0 -6 -11 -3
-18 -14 -18 -27 0 -15 -6 -22 -20 -22 -17 0 -20 7 -21 51 0 27 -2 61 -4 75 -2
14 -6 60 -9 102 -5 66 -3 79 12 87 22 13 39 14 47 1z m203 -62 c6 -31 6 -60 1
-69 -4 -9 -6 -18 -4 -21 2 -2 7 -60 10 -129 6 -151 14 -210 27 -227 16 -19 21
-175 5 -166 -9 6 -9 4 1 -8 11 -13 7 -16 -24 -21 -21 -4 -42 -3 -48 1 -6 4 5
10 24 13 l35 6 -32 2 c-28 1 -33 5 -33 26 0 14 6 25 13 25 8 0 9 2 1 8 -15 9
-23 87 -29 272 -2 80 -7 184 -11 231 -4 48 -3 92 0 98 4 6 18 11 30 11 20 0
25 -7 34 -52z m-5843 -19 c8 -65 3 -78 -18 -60 -8 6 -22 8 -31 5 -14 -5 -13 0
5 30 12 20 19 40 15 43 -3 4 -6 1 -6 -5 0 -6 -7 -9 -15 -6 -10 4 -15 0 -15
-14 0 -40 -11 -52 -49 -52 -45 0 -58 8 -63 40 l-4 25 -14 -27 c-9 -19 -21 -28
-36 -28 -22 0 -23 1 -10 38 12 34 16 37 47 34 19 -1 59 6 89 17 92 33 97 31
105 -40z m2407 -124 l-4 -45 -99 0 -99 0 0 44 0 44 103 1 102 1 -3 -45z m2804
-124 c-3 -4 24 -11 61 -14 36 -4 68 -8 70 -11 2 -2 7 -76 11 -165 7 -155 0
-216 -22 -194 -4 4 -14 -1 -22 -12 -12 -16 -16 -17 -23 -6 -6 9 -18 11 -33 8
-20 -5 -27 -1 -40 28 -8 19 -12 35 -7 35 5 0 9 14 9 30 0 17 -5 30 -11 30 -5
0 -7 5 -4 10 3 6 -1 10 -9 10 -22 0 -20 27 2 32 14 4 18 14 16 53 -1 26 -9 56
-18 66 -13 16 -13 20 -1 33 13 12 13 15 0 20 -8 3 -15 17 -15 31 0 19 5 25 21
25 11 0 18 -4 15 -9z m-2983 -158 c-4 -11 -3 -14 5 -9 6 4 24 0 39 -7 24 -13
29 -13 40 2 11 15 12 15 13 0 0 -25 -26 -41 -62 -38 -18 2 -38 0 -45 -4 -6 -4
-14 -1 -16 5 -3 7 -6 -14 -7 -47 -2 -84 -18 -119 -19 -41 -1 53 -3 58 -21 53
-11 -3 -20 0 -20 6 0 7 -5 5 -10 -3 -8 -12 -10 -9 -10 13 0 15 -4 27 -10 27
-5 0 -10 -20 -10 -44 0 -49 -16 -69 -52 -65 -13 2 -28 0 -33 -3 -6 -4 -17 -3
-24 1 -9 6 1 13 30 22 26 8 44 20 44 29 0 8 -6 14 -13 12 -8 -1 -27 -4 -43 -6
-27 -3 -29 -1 -29 30 0 32 1 33 53 39 28 4 57 6 62 5 6 -1 33 -2 62 -1 46 1
51 3 46 21 -4 15 0 20 16 20 15 0 19 -4 14 -17z m-2183 -14 c10 -7 11 -12 4
-15 -7 -3 -10 -28 -8 -69 4 -73 -6 -81 -45 -40 -13 14 -33 24 -45 24 -17 -1
-17 -2 -3 -6 9 -2 15 -9 12 -14 -3 -5 1 -6 9 -3 8 3 19 -3 26 -15 11 -22 10
-22 -29 -25 -11 0 -23 -5 -28 -10 -4 -5 -3 -6 4 -2 13 7 33 -22 33 -48 0 -18
-27 -11 -50 14 -8 8 -12 11 -7 6 17 -23 5 -33 -45 -35 -94 -4 -64 -11 53 -12
168 -2 87 -16 -98 -18 l-153 -1 0 35 c0 26 4 35 18 36 16 1 15 2 -1 6 -14 4
-17 11 -13 31 3 15 9 45 12 67 3 22 13 48 21 58 10 10 12 17 5 17 -7 0 -12 7
-12 15 0 13 25 15 163 15 98 0 168 -5 177 -11z m811 -55 c17 -15 20 -28 17
-66 -3 -42 -1 -48 17 -49 19 -2 19 -2 -1 -6 -17 -3 -23 -14 -27 -44 -3 -23
-13 -47 -24 -54 -17 -13 -18 -10 -21 31 -3 45 -18 58 -29 27 -3 -10 -15 -26
-26 -37 -15 -15 -16 -20 -5 -27 10 -7 9 -9 -6 -9 -12 0 -16 5 -12 15 7 20 -11
19 -22 0 -6 -11 -30 -18 -78 -22 l-69 -6 5 109 c3 60 4 112 2 117 -2 4 -31 8
-65 8 l-62 2 70 6 c39 4 96 7 127 6 32 0 58 3 58 7 0 22 125 15 151 -8z m4176
6 c12 0 14 -14 11 -80 -3 -77 -2 -80 20 -80 12 0 22 6 23 13 0 7 3 6 6 -3 8
-19 24 -35 43 -42 8 -4 0 -5 -17 -5 -18 1 -33 5 -33 8 0 4 -9 9 -21 12 -16 4
-20 2 -16 -12 4 -16 1 -16 -44 -2 -47 16 -86 40 -41 27 13 -5 22 -3 22 3 0 6
-9 11 -20 11 -18 0 -20 7 -20 58 0 39 -3 52 -10 42 -13 -21 -24 -5 -16 24 5
19 14 26 39 29 17 2 38 2 45 0 8 -1 20 -3 29 -3z m1074 -142 c3 -96 1 -93 39
-95 19 -1 41 -2 48 -2 7 -1 12 -7 10 -13 -4 -16 3 -18 50 -17 27 1 30 3 12 6
-26 5 -53 23 -33 23 6 0 42 -10 79 -21 82 -26 157 -27 181 -4 9 10 26 15 39
12 12 -2 28 -1 35 4 7 4 19 1 26 -7 12 -12 17 -12 36 0 33 20 213 29 309 15
70 -10 82 -10 89 4 7 11 28 15 88 16 81 1 96 -5 85 -34 -5 -13 -15 -15 -52 -9
-32 5 -43 4 -38 -5 4 -6 1 -11 -6 -11 -7 -1 -137 -6 -288 -11 -151 -6 -296
-11 -322 -10 -27 1 -48 -1 -48 -3 0 -3 12 -12 28 -20 38 -21 12 -20 -36 2 -34
15 -53 17 -119 10 -105 -11 -394 -6 -389 7 1 6 24 9 49 7 42 -3 47 -1 47 17 0
20 -4 20 -155 14 -114 -4 -155 -3 -155 5 0 7 10 13 23 13 12 1 29 3 37 4 8 1
79 3 158 4 l142 1 0 65 c0 51 3 65 15 65 10 0 15 -11 16 -32z m1806 -48 c28 0
41 -26 22 -45 -14 -13 -227 -27 -256 -18 -14 5 -18 39 -5 47 4 2 39 8 77 11
39 4 72 9 75 12 3 2 18 2 34 -1 16 -3 39 -6 53 -6z m-4822 -160 c10 -16 -23
-23 -104 -22 -147 3 -208 2 -374 -6 -92 -4 -167 -4 -167 -1 0 4 57 10 128 14
70 3 145 10 167 15 59 12 343 12 350 0z m2452 -117 c-17 -4 -15 -7 8 -19 15
-8 44 -14 64 -15 l36 -1 -45 -12 c-27 -7 -39 -15 -30 -18 11 -4 8 -8 -11 -16
-46 -19 -124 -19 -113 0 5 8 -7 9 -47 4 -30 -3 -87 -9 -128 -13 l-74 -6 22 22
c26 26 141 42 164 22 15 -12 47 -5 47 9 0 5 19 13 43 18 l42 10 -40 2 c-34 2
-36 3 -15 9 14 4 41 8 60 8 19 1 27 -1 17 -4z"/>
<path d="M9096 4558 c4 -35 8 -65 10 -66 3 -4 112 16 134 25 15 6 27 8 64 11
15 2 17 7 12 34 -3 18 -10 36 -14 40 -5 5 -44 2 -88 -7 -51 -10 -80 -11 -82
-5 -2 6 -13 15 -23 21 -19 10 -20 8 -13 -53z"/>
<path d="M3530 3013 c-65 -24 -96 -42 -50 -28 49 15 14 -4 -68 -35 -46 -18
-82 -34 -80 -36 2 -2 130 -6 284 -9 l279 -6 -50 27 c-27 15 -53 31 -56 37 -4
5 -12 6 -19 2 -8 -5 -11 -4 -7 2 6 9 -137 74 -158 72 -5 -1 -39 -12 -75 -26z"/>
<path d="M65 2111 c-26 -5 -31 -12 -39 -54 -4 -26 -12 -47 -17 -47 -5 0 -9
-54 -9 -120 l0 -120 34 0 c33 0 34 1 41 50 6 44 10 50 30 50 31 0 32 3 41 89
7 72 7 73 -17 69 -22 -3 -23 0 -20 45 1 26 -1 46 -6 46 -4 -1 -21 -4 -38 -8z"/>
</g>
</svg>
